<svg width="31" height="31" viewBox="0 0 31 31" fill="none" xmlns="http://www.w3.org/2000/svg">
<path d="M0.131592 24.8687V9.70468C0.131592 6.39097 2.81788 3.70468 6.13159 3.70468H16.1091V5.70468H6.13159C3.92245 5.70468 2.13159 7.49554 2.13159 9.70468V24.8687C2.13174 27.0778 3.92255 28.8687 6.13159 28.8687H21.2957C23.5046 28.8686 25.2955 27.0777 25.2957 24.8687V15.2887H27.2957V24.8687C27.2955 28.1822 24.6091 30.8686 21.2957 30.8687H6.13159C2.81797 30.8687 0.13174 28.1823 0.131592 24.8687Z" fill="#161616"/>
<path d="M21.7021 2.92058C22.8737 1.74917 24.7728 1.74925 25.9443 2.92058L28.3203 5.29656C29.4916 6.46812 29.4917 8.36727 28.3203 9.53875L16.001 21.8581H9.72754V14.8952L21.7021 2.92058ZM24.5303 4.33464C24.1398 3.94436 23.5067 3.94428 23.1162 4.33464L11.7275 15.7233V19.8581H15.1729L26.9062 8.12468C27.2966 7.73425 27.2964 7.10114 26.9062 6.71062L24.5303 4.33464Z" fill="black"/>
</svg>
