<svg width="31" height="31" viewBox="0 0 31 31" fill="none" xmlns="http://www.w3.org/2000/svg">
<path d="M28.0254 11.0004C28.0254 9.66816 27.6143 8.43457 26.9121 7.41644C25.7704 5.76105 23.864 4.67929 21.7051 4.67914C19.355 4.67914 17.3022 5.96094 16.2119 7.86859L15.9248 8.3725H14.7539L14.4658 7.86859C13.3756 5.96108 11.3235 4.67929 8.97363 4.67914C6.81455 4.67914 4.90742 5.76093 3.76562 7.41644C3.06347 8.43456 2.65234 9.66818 2.65234 11.0004C2.65256 14.9861 5.73255 18.6002 9.125 21.3315C10.7875 22.67 12.4559 23.7403 13.7109 24.477C14.3374 24.8447 14.8585 25.1278 15.2207 25.3178C15.2642 25.3406 15.3059 25.3612 15.3447 25.3813C15.3832 25.3614 15.4247 25.3414 15.4678 25.3188C15.8296 25.1291 16.3497 24.8461 16.9756 24.4789C18.2296 23.7432 19.8964 22.674 21.5576 21.3364C24.9469 18.6072 28.0252 14.9929 28.0254 11.0004ZM30.0254 11.0004C30.0252 15.9782 26.2627 20.1149 22.8115 22.894C21.0527 24.3102 19.2994 25.4343 17.9883 26.2036C17.3317 26.5887 16.7828 26.8868 16.3965 27.0893C16.2033 27.1906 16.0501 27.2689 15.9443 27.3217C15.8917 27.348 15.8507 27.3684 15.8223 27.3823C15.8082 27.3891 15.7969 27.3941 15.7891 27.3979C15.7851 27.3998 15.7816 27.4017 15.7793 27.4028C15.7782 27.4033 15.7771 27.4034 15.7764 27.4037L15.7754 27.4047L15.3438 27.6108L14.9131 27.4047L15.3438 26.5024L14.9121 27.4037H14.9111C14.9104 27.4034 14.9093 27.4033 14.9082 27.4028C14.906 27.4017 14.9032 27.3997 14.8994 27.3979C14.8916 27.3941 14.8804 27.3882 14.8662 27.3813C14.8377 27.3673 14.7961 27.3472 14.7432 27.3207C14.6374 27.2679 14.4842 27.1907 14.291 27.0893C13.9044 26.8865 13.3554 26.5883 12.6982 26.2026C11.3861 25.4323 9.63144 24.3063 7.87109 22.8891C4.41799 20.109 0.652559 15.9724 0.652344 11.0004C0.652344 9.24971 1.19404 7.62202 2.11914 6.2807C3.61828 4.10708 6.12935 2.67914 8.97363 2.67914C11.5287 2.67927 13.8135 3.8317 15.3389 5.64203C16.8643 3.83157 19.1498 2.67914 21.7051 2.67914C24.5492 2.67929 27.0595 4.10722 28.5586 6.2807C29.4837 7.62203 30.0254 9.2497 30.0254 11.0004Z" fill="#8300C9"/>
</svg>
