<svg width="31" height="31" viewBox="0 0 31 31" fill="none" xmlns="http://www.w3.org/2000/svg">
<path d="M30.0254 11.0004C30.0252 15.9782 26.2627 20.1149 22.8115 22.894C21.0527 24.3102 19.2994 25.4343 17.9883 26.2036C17.3317 26.5887 16.7828 26.8868 16.3965 27.0893C16.2033 27.1906 16.0501 27.2689 15.9443 27.3217C15.8917 27.348 15.8507 27.3684 15.8223 27.3823C15.8082 27.3891 15.7969 27.3941 15.7891 27.3979C15.7851 27.3998 15.7816 27.4017 15.7793 27.4028L15.7764 27.4037L15.7754 27.4047L15.3438 27.6108L14.9131 27.4047L15.3438 26.5024L14.9121 27.4037L14.9082 27.4028C14.906 27.4017 14.9032 27.3997 14.8994 27.3979C14.8916 27.3941 14.8804 27.3882 14.8662 27.3813C14.8377 27.3673 14.7961 27.3472 14.7432 27.3207C14.6374 27.2679 14.4842 27.1907 14.291 27.0893C13.9044 26.8865 13.3554 26.5883 12.6982 26.2026C11.3861 25.4323 9.63144 24.3063 7.87109 22.8891C4.41799 20.109 0.652559 15.9724 0.652344 11.0004C0.652344 9.24971 1.19404 7.62202 2.11914 6.2807C3.61828 4.10708 6.12935 2.67914 8.97363 2.67914C11.5287 2.67927 13.8135 3.8317 15.3389 5.64203C16.8643 3.83157 19.1498 2.67914 21.7051 2.67914C24.5492 2.67929 27.0595 4.10722 28.5586 6.2807C29.4837 7.62203 30.0254 9.2497 30.0254 11.0004Z" fill="#F6F6F6"/>
</svg>
