<svg width="31" height="31" viewBox="0 0 31 31" fill="none" xmlns="http://www.w3.org/2000/svg">
<path d="M6.07935 9.05359V12.0536H0.498291V9.05359H6.07935Z" fill="#161616"/>
<path d="M30.5015 9.05359V12.0536H14.2056V9.05359H30.5015Z" fill="#161616"/>
<path d="M30.4985 19.0536L30.4985 22.0536L24.9897 22.0536L24.9897 19.0536L30.4985 19.0536Z" fill="#161616"/>
<path d="M17.2949 19.0536L17.2949 22.0536L0.543945 22.0536L0.543945 19.0536L17.2949 19.0536Z" fill="#161616"/>
<path d="M11.9812 10.5027C11.9812 9.39812 11.0858 8.50269 9.9812 8.50269C8.87663 8.50269 7.9812 9.39812 7.9812 10.5027C7.9812 11.6073 8.87663 12.5027 9.9812 12.5027V15.5027C7.21978 15.5027 4.9812 13.2641 4.9812 10.5027C4.9812 7.74126 7.21978 5.50269 9.9812 5.50269C12.7426 5.50269 14.9812 7.74126 14.9812 10.5027C14.9812 13.2641 12.7426 15.5027 9.9812 15.5027V12.5027C11.0858 12.5027 11.9812 11.6073 11.9812 10.5027Z" fill="#161616"/>
<path d="M22.6455 20.4973C22.6455 19.3928 21.7501 18.4973 20.6455 18.4973C19.5409 18.4973 18.6455 19.3928 18.6455 20.4973C18.6455 21.6019 19.5409 22.4973 20.6455 22.4973V25.4973C17.8841 25.4973 15.6455 23.2588 15.6455 20.4973C15.6455 17.7359 17.8841 15.4973 20.6455 15.4973C23.4069 15.4973 25.6455 17.7359 25.6455 20.4973C25.6455 23.2588 23.4069 25.4973 20.6455 25.4973V22.4973C21.7501 22.4973 22.6455 21.6019 22.6455 20.4973Z" fill="#161616"/>
</svg>
