<svg width="31" height="31" viewBox="0 0 31 31" fill="none" xmlns="http://www.w3.org/2000/svg">
<g clip-path="url(#clip0_230_90)">
<path d="M25.5 28.5V30.5H5.5V28.5H25.5ZM28.5 25.5V5.5C28.5 3.84315 27.1569 2.5 25.5 2.5H5.5C3.84315 2.5 2.5 3.84315 2.5 5.5V25.5C2.5 27.1569 3.84315 28.5 5.5 28.5V30.5C2.82472 30.5 0.640529 28.3989 0.506836 25.7568L0.5 25.5V5.5C0.5 2.73858 2.73858 0.5 5.5 0.5H25.5L25.7568 0.506836C28.3989 0.640529 30.5 2.82472 30.5 5.5V25.5L30.4932 25.7568C30.3638 28.3138 28.3138 30.3638 25.7568 30.4932L25.5 30.5V28.5C27.1569 28.5 28.5 27.1569 28.5 25.5Z" fill="#161616"/>
<path d="M30.5 9.5V11.5H0.5V9.5H30.5Z" fill="#161616"/>
<path d="M30.5 19.5V21.5H0.5V19.5H30.5Z" fill="#161616"/>
</g>
<defs>
<clipPath id="clip0_230_90">
<rect width="31" height="31" fill="white"/>
</clipPath>
</defs>
</svg>
