<svg width="31" height="31" viewBox="0 0 31 31" fill="none" xmlns="http://www.w3.org/2000/svg">
<g clip-path="url(#clip0_279_27)">
<path d="M21.0285 14.3967L22.1303 15.4985L16.0692 21.5596L14.9674 20.4578L21.0285 14.3967Z" fill="#F6F6F6"/>
<path d="M21.0281 14.0435L22.4838 15.4991L16.0694 21.9135L14.6138 20.4578L21.0281 14.0435ZM16.0694 21.2064L21.7767 15.4991L21.0281 14.7506L15.3209 20.4578L16.0694 21.2064Z" fill="#F6F6F6"/>
<path d="M22.127 15.4978L21.0252 16.5996L14.9674 10.5418L16.0692 9.44003L22.127 15.4978Z" fill="#F6F6F6"/>
<path d="M22.4808 15.4981L21.0252 16.9537L14.6136 10.5421L16.0692 9.08646L22.4808 15.4981ZM15.3207 10.5421L21.0252 16.2466L21.7737 15.4981L16.0692 9.79356L15.3207 10.5421Z" fill="#F6F6F6"/>
<path d="M28.7021 24.4518V6.04843C28.7021 3.83938 26.9112 2.04858 24.7021 2.04843H15.5V0.0484314H24.7021C28.0157 0.0485798 30.7021 2.73481 30.7021 6.04843V24.4518C30.7021 27.7654 28.0157 30.4516 24.7021 30.4518H15.5V28.4518H24.7021C26.9112 28.4516 28.7021 26.6608 28.7021 24.4518Z" fill="#F6F6F6"/>
<path d="M20.0432 14.5L20.0432 16.5L-0.116944 16.5L-0.116943 14.5L20.0432 14.5Z" fill="#F6F6F6"/>
</g>
<defs>
<clipPath id="clip0_279_27">
<rect width="31" height="31" fill="white"/>
</clipPath>
</defs>
</svg>
