<svg width="110" height="16" viewBox="0 0 110 16" fill="none" xmlns="http://www.w3.org/2000/svg">
<g clip-path="url(#clip0_164_107)">
<path d="M92.7566 1.53226C96.9963 1.53226 97.5965 4.95888 97.5965 6.04301C97.3448 9.12116 95.3121 10.7861 92.4469 10.7861H91.9435V15.0451H86.1163V3.29397C86.1163 2.2292 86.7552 1.53226 87.7425 1.53226H92.7566ZM92.4469 10.3795C95.1185 10.3795 96.9383 8.9082 97.1899 6.04301C97.1899 4.78464 96.493 1.93881 92.7566 1.93881H87.7425C86.9875 1.93881 86.5229 2.44215 86.5229 3.29397V14.6386H90.2593C90.356 14.6386 90.569 14.5999 90.569 14.4063C90.569 14.2514 90.4335 14.1353 90.2399 14.1353H88.4395V13.8255H90.2593C90.4335 13.8255 90.569 13.7481 90.569 13.5932C90.569 13.4383 90.3948 13.3415 90.2399 13.3415H88.4395V13.0318H90.2593C90.5109 13.0318 90.569 12.8962 90.569 12.7801C90.569 12.6059 90.3948 12.5284 90.2399 12.5284H88.0329L90.085 2.8487L90.4722 2.9455L90.1237 4.55233H92.2726C92.8534 4.55233 93.4148 4.55233 93.4148 5.55902V8.07575H93.0083V5.55902C93.0083 4.95888 92.8728 4.95888 92.2726 4.95888H90.0463L89.3494 8.2887C89.4849 9.56643 91.2079 10.3795 92.4469 10.3795Z" fill="black"/>
<path d="M102.787 2.92361V1.72707H107.573V2.92361H102.787ZM101.59 4.12015V2.92361H102.787V4.12015H101.59ZM107.573 5.31669V2.92361H108.769V5.31669H107.573ZM100.394 5.31669V4.12015H101.59V5.31669H100.394ZM99.197 7.70977V5.31669H100.394V7.70977H99.197ZM106.376 6.51323V5.31669H107.573V6.51323H106.376ZM100.394 8.90631V7.70977H103.983V8.90631H100.394ZM98.0005 10.1029V8.90631H100.394V10.1029H98.0005ZM96.8089 12.4959V10.1029H98.0005V12.4959H96.8089ZM105.18 11.2994V10.1029H106.376V11.2994H105.18ZM106.376 13.6925V11.2994H107.573V13.6925H106.376ZM98.0005 13.6925V12.4959H99.197V13.6925H98.0005ZM99.197 14.884V13.6925H106.376V14.884H99.197Z" fill="black"/>
<path d="M78.7134 1.51216C82.7108 1.51216 84.8039 3.82826 84.8039 8.3232C84.8039 12.8181 82.7108 15.0656 78.7134 15.0656C74.7331 15.0656 72.6401 12.8181 72.6401 8.3232C72.6401 3.82826 74.7331 1.51216 78.7134 1.51216ZM83.5343 8.47761L79.005 3.00476C78.3531 2.23272 77.2551 2.64447 76.9806 3.5366L74.6645 10.931C74.167 12.5436 75.2478 13.4358 76.6203 12.8868L83.1225 10.279C83.946 9.95305 84.1176 9.18101 83.5343 8.47761Z" fill="black"/>
<path d="M63.7026 13.9543C63.7026 13.7408 63.7529 13.546 63.8534 13.3701C63.8157 13.1943 63.7089 13.0875 63.533 13.0498C63.3571 13.1503 63.1624 13.2005 62.9488 13.2005C62.6222 13.2005 62.3521 13.0937 62.1385 12.8802C61.9249 12.6666 61.8181 12.3965 61.8181 12.0698C61.8181 11.8437 61.8747 11.6427 61.9877 11.4668C62.1008 11.2909 62.2516 11.1527 62.44 11.0522C62.5405 10.8763 62.6096 10.7193 62.6473 10.5811C62.6976 10.4429 62.7227 10.311 62.7227 10.1853C62.7227 10.0597 62.6976 9.92777 62.6473 9.78957C62.6096 9.65137 62.5405 9.49433 62.44 9.31844C62.2516 9.21793 62.1008 9.07974 61.9877 8.90385C61.8747 8.72796 61.8181 8.52695 61.8181 8.3008C61.8181 8.07466 61.8747 7.87365 61.9877 7.69776C62.1008 7.52187 62.2516 7.38367 62.44 7.28317C62.5405 7.10728 62.6096 6.95024 62.6473 6.81204C62.6976 6.67384 62.7227 6.54192 62.7227 6.41629C62.7227 6.29066 62.6976 6.15874 62.6473 6.02054C62.6096 5.88235 62.5405 5.7253 62.44 5.54941C62.2516 5.44891 62.1008 5.31071 61.9877 5.13482C61.8747 4.95893 61.8181 4.75792 61.8181 4.53178C61.8181 4.20513 61.9249 3.93501 62.1385 3.72144C62.3521 3.50786 62.6222 3.40107 62.9488 3.40107C63.1624 3.40107 63.3571 3.45132 63.533 3.55183C63.7089 3.51414 63.8157 3.40735 63.8534 3.23146C63.7529 3.05558 63.7026 2.86084 63.7026 2.64726C63.7026 2.32061 63.8094 2.0505 64.023 1.83692C64.2366 1.62334 64.5067 1.51656 64.8333 1.51656C65.2354 1.51656 65.5495 1.67988 65.7756 2.00653C66.0017 1.67988 66.3158 1.51656 66.7179 1.51656C67.1199 1.51656 67.434 1.67988 67.6601 2.00653C67.8862 1.67988 68.2003 1.51656 68.6024 1.51656C68.929 1.51656 69.1991 1.62334 69.4127 1.83692C69.6263 2.0505 69.7331 2.32061 69.7331 2.64726C69.7331 2.86084 69.6828 3.05558 69.5823 3.23146C69.62 3.40735 69.7268 3.51414 69.9027 3.55183C70.0786 3.45132 70.2733 3.40107 70.4869 3.40107C70.8135 3.40107 71.0836 3.50786 71.2972 3.72144C71.5108 3.93501 71.6176 4.20513 71.6176 4.53178C71.6176 4.85843 71.5108 5.12854 71.2972 5.34212C71.0836 5.5557 70.8135 5.66249 70.4869 5.66249C70.1602 5.66249 69.8901 5.5557 69.6765 5.34212C69.463 5.12854 69.3562 4.85843 69.3562 4.53178C69.3562 4.3182 69.4064 4.12347 69.5069 3.94758C69.4692 3.77169 69.3624 3.6649 69.1866 3.62721C69.0107 3.72772 68.8159 3.77797 68.6024 3.77797C68.2003 3.77797 67.8862 3.61465 67.6601 3.288C67.434 3.61465 67.1199 3.77797 66.7179 3.77797C66.3158 3.77797 66.0017 3.61465 65.7756 3.288C65.5495 3.61465 65.2354 3.77797 64.8333 3.77797C64.6198 3.77797 64.425 3.72772 64.2491 3.62721C64.0732 3.6649 63.9665 3.77169 63.9288 3.94758C64.0293 4.12347 64.0795 4.3182 64.0795 4.53178C64.0795 4.75792 64.023 4.95893 63.9099 5.13482C63.7969 5.31071 63.6461 5.44891 63.4576 5.54941C63.3697 5.7253 63.3006 5.88235 63.2503 6.02054C63.2001 6.15874 63.175 6.29066 63.175 6.41629C63.175 6.54192 63.2001 6.67384 63.2503 6.81204C63.3006 6.95024 63.3697 7.10728 63.4576 7.28317C63.6461 7.38367 63.7969 7.52187 63.9099 7.69776C64.023 7.87365 64.0795 8.07466 64.0795 8.3008C64.0795 8.52695 64.023 8.72796 63.9099 8.90385C63.7969 9.07974 63.6461 9.21793 63.4576 9.31844C63.3697 9.49433 63.3006 9.65137 63.2503 9.78957C63.2001 9.92777 63.175 10.0597 63.175 10.1853C63.175 10.311 63.2001 10.4429 63.2503 10.5811C63.3006 10.7193 63.3697 10.8763 63.4576 11.0522C63.6461 11.1527 63.7969 11.2909 63.9099 11.4668C64.023 11.6427 64.0795 11.8437 64.0795 12.0698C64.0795 12.2834 64.0293 12.4781 63.9288 12.654C63.9665 12.8299 64.0732 12.9367 64.2491 12.9744C64.425 12.8739 64.6198 12.8236 64.8333 12.8236C65.2354 12.8236 65.5495 12.987 65.7756 13.3136C66.0017 12.987 66.3158 12.8236 66.7179 12.8236C67.1199 12.8236 67.434 12.987 67.6601 13.3136C67.8862 12.987 68.2003 12.8236 68.6024 12.8236C68.8159 12.8236 69.0107 12.8739 69.1866 12.9744C69.3624 12.9367 69.4692 12.8299 69.5069 12.654C69.4064 12.4781 69.3562 12.2834 69.3562 12.0698C69.3562 11.7432 69.463 11.4731 69.6765 11.2595C69.8901 11.0459 70.1602 10.9391 70.4869 10.9391C70.8135 10.9391 71.0836 11.0459 71.2972 11.2595C71.5108 11.4731 71.6176 11.7432 71.6176 12.0698C71.6176 12.3965 71.5108 12.6666 71.2972 12.8802C71.0836 13.0937 70.8135 13.2005 70.4869 13.2005C70.2733 13.2005 70.0786 13.1503 69.9027 13.0498C69.7268 13.0875 69.62 13.1943 69.5823 13.3701C69.6828 13.546 69.7331 13.7408 69.7331 13.9543C69.7331 14.281 69.6263 14.5511 69.4127 14.7647C69.1991 14.9783 68.929 15.0851 68.6024 15.0851C68.2003 15.0851 67.8862 14.9217 67.6601 14.5951C67.434 14.9217 67.1199 15.0851 66.7179 15.0851C66.3158 15.0851 66.0017 14.9217 65.7756 14.5951C65.5495 14.9217 65.2354 15.0851 64.8333 15.0851C64.5067 15.0851 64.2366 14.9783 64.023 14.7647C63.8094 14.5511 63.7026 14.281 63.7026 13.9543Z" fill="black"/>
<path d="M51.6719 3.56381C51.6719 2.13385 52.8975 1.59529 54.3275 1.59529C55.7575 1.59529 57.3917 2.13385 58.1717 2.87669L57.9303 0.79674L58.1903 0.759598L59.5831 8.85653C59.9545 9.54366 60.1959 10.3608 60.1959 11.3822C60.1959 13.7593 58.246 15.1335 55.8317 15.1335C51.3933 15.1335 50.8362 11.1036 51.0962 9.26509L49.1091 10.6951L48.9605 10.4908L53.7332 6.3866C52.5633 5.66233 51.6719 4.82664 51.6719 3.56381ZM54.6618 5.58805L56.4074 4.0838L56.5746 4.28808L55.0146 5.73661C56.4446 6.29374 58.0974 6.94372 59.1374 8.22512C59.0445 7.77942 58.9331 7.33371 58.8217 6.9623C57.8188 3.43381 55.516 1.92957 53.9004 1.92957C52.8975 1.92957 52.1547 2.50527 52.1547 3.52667C52.1547 4.5295 53.269 5.03092 54.6618 5.58805ZM54.0861 6.60945L53.3061 7.33371C51.1333 9.35795 51.839 14.8364 55.6089 14.8364C57.5031 14.8364 58.766 13.3693 58.766 11.605C58.766 8.91225 56.1475 7.83513 54.0861 6.60945Z" fill="black"/>
<path d="M0.796192 14.953V14.373C1.28953 14.373 1.64286 14.3463 1.85619 14.293C2.06953 14.2263 2.20286 14.1063 2.25619 13.933C2.30953 13.7597 2.33619 13.5063 2.33619 13.173V3.533C2.33619 3.18634 2.30953 2.933 2.25619 2.773C2.20286 2.59967 2.06953 2.48634 1.85619 2.433C1.64286 2.36634 1.28953 2.333 0.796192 2.333V1.753H10.1162V4.893H9.59619C9.48953 4.23967 9.34286 3.73967 9.15619 3.393C8.98286 3.033 8.70286 2.78634 8.31619 2.653C7.94286 2.50634 7.38286 2.433 6.63619 2.433H4.91619C4.60953 2.433 4.40953 2.473 4.31619 2.553C4.22286 2.633 4.17619 2.833 4.17619 3.153V7.993H6.55619C7.07619 7.993 7.45619 7.93967 7.69619 7.833C7.93619 7.72634 8.10286 7.553 8.19619 7.313C8.28953 7.05967 8.36953 6.72634 8.43619 6.313H8.89619V10.453H8.43619C8.36953 10.0397 8.28953 9.713 8.19619 9.473C8.10286 9.21967 7.93619 9.03967 7.69619 8.933C7.45619 8.82634 7.07619 8.773 6.55619 8.773H4.17619V13.173C4.17619 13.5063 4.20953 13.7597 4.27619 13.933C4.34286 14.1063 4.50953 14.2263 4.77619 14.293C5.04286 14.3463 5.46286 14.373 6.03619 14.373V14.953H0.796192ZM17.8732 15.193C16.4732 15.193 15.3266 14.8997 14.4332 14.313C13.5399 13.713 12.8799 12.8997 12.4532 11.873C12.0266 10.833 11.8132 9.66634 11.8132 8.373C11.8132 7.42634 11.9266 6.53967 12.1532 5.713C12.3932 4.873 12.7532 4.13967 13.2332 3.513C13.7266 2.88634 14.3532 2.39967 15.1132 2.053C15.8866 1.693 16.8066 1.513 17.8732 1.513C18.9399 1.513 19.8532 1.693 20.6132 2.053C21.3732 2.39967 21.9932 2.88634 22.4732 3.513C22.9666 4.13967 23.3266 4.873 23.5532 5.713C23.7932 6.53967 23.9132 7.42634 23.9132 8.373C23.9132 9.66634 23.6999 10.833 23.2732 11.873C22.8599 12.8997 22.2066 13.713 21.3132 14.313C20.4199 14.8997 19.2732 15.193 17.8732 15.193ZM17.8732 14.513C18.4999 14.513 19.0399 14.3997 19.4932 14.173C19.9466 13.933 20.3199 13.613 20.6132 13.213C20.9066 12.813 21.1399 12.353 21.3132 11.833C21.4866 11.2997 21.6066 10.7397 21.6732 10.153C21.7399 9.56634 21.7732 8.973 21.7732 8.373C21.7732 7.55967 21.7132 6.78634 21.5932 6.053C21.4866 5.30634 21.2932 4.64634 21.0132 4.073C20.7332 3.48634 20.3399 3.02634 19.8332 2.693C19.3266 2.35967 18.6732 2.193 17.8732 2.193C17.0732 2.193 16.4132 2.35967 15.8932 2.693C15.3866 3.02634 14.9932 3.48634 14.7132 4.073C14.4332 4.64634 14.2332 5.30634 14.1132 6.053C14.0066 6.78634 13.9532 7.55967 13.9532 8.373C13.9532 8.973 13.9866 9.56634 14.0532 10.153C14.1332 10.7397 14.2532 11.2997 14.4132 11.833C14.5866 12.353 14.8199 12.813 15.1132 13.213C15.4199 13.613 15.7999 13.933 16.2532 14.173C16.7066 14.3997 17.2466 14.513 17.8732 14.513ZM35.3018 15.073L27.7218 3.713H27.6818V13.333C27.6818 13.7063 27.7552 13.973 27.9018 14.133C28.0618 14.293 28.3218 14.373 28.6818 14.373H29.4818V14.953H25.3818V14.373H25.9818C26.6085 14.373 26.9218 14.0263 26.9218 13.333V3.473C26.9218 3.13967 26.8885 2.893 26.8218 2.733C26.7685 2.573 26.6285 2.46634 26.4018 2.413C26.1885 2.35967 25.8418 2.333 25.3618 2.333V1.753H28.7218L35.4818 11.993H35.5218V3.293C35.5218 2.653 35.1818 2.333 34.5018 2.333H33.7218V1.753H37.8018V2.333H37.2018C36.5885 2.333 36.2818 2.653 36.2818 3.293V15.073H35.3018ZM41.5448 14.953V14.373C42.1581 14.373 42.5981 14.3463 42.8648 14.293C43.1315 14.2397 43.2915 14.133 43.3448 13.973C43.4115 13.7997 43.4448 13.533 43.4448 13.173V2.413H42.3648C41.6448 2.413 41.0981 2.48634 40.7248 2.633C40.3648 2.77967 40.0981 3.03967 39.9248 3.413C39.7648 3.773 39.6315 4.29967 39.5248 4.993H39.0048V1.753H49.7248V4.993H49.2048C49.0981 4.29967 48.9581 3.773 48.7848 3.413C48.6248 3.03967 48.3648 2.77967 48.0048 2.633C47.6448 2.48634 47.1048 2.413 46.3848 2.413H45.2848V13.173C45.2848 13.533 45.3181 13.7997 45.3848 13.973C45.4515 14.133 45.6181 14.2397 45.8848 14.293C46.1648 14.3463 46.5981 14.373 47.1848 14.373V14.953H41.5448Z" fill="black"/>
</g>
<defs>
<clipPath id="clip0_164_107">
<rect width="110" height="16" fill="white"/>
</clipPath>
</defs>
</svg>
