<svg width="31" height="31" viewBox="0 0 31 31" fill="none" xmlns="http://www.w3.org/2000/svg">
<g clip-path="url(#clip0_171_381)">
<path d="M25.5 27.5186V30.5186H5.5V27.5186H25.5ZM27.5 25.5186V24.5322C27.5 23.4276 26.6046 22.5322 25.5 22.5322H5.5C4.39543 22.5322 3.5 23.4276 3.5 24.5322V25.5186C3.5 26.6232 4.39543 27.5186 5.5 27.5186V30.5186C2.73858 30.5186 0.5 28.28 0.5 25.5186V24.5322C0.5 21.7707 2.73858 19.5321 5.5 19.5321H25.5L25.7568 19.539C28.3989 19.6727 30.5 21.8569 30.5 24.5322V25.5186C30.5 28.1939 28.3989 30.3791 25.7568 30.5128L25.5 30.5186V27.5186C26.6046 27.5186 27.5 26.6232 27.5 25.5186Z" fill="#F6F6F6"/>
<path d="M20.2482 7.98135C20.2482 5.49607 18.2335 3.48135 15.7482 3.48135C13.2629 3.48135 11.2482 5.49607 11.2482 7.98135C11.2482 10.4666 13.2629 12.4814 15.7482 12.4814V15.4814C11.606 15.4814 8.24817 12.1235 8.24817 7.98135C8.24817 3.83922 11.606 0.481354 15.7482 0.481354C19.8903 0.481354 23.2482 3.83922 23.2482 7.98135C23.2482 12.1235 19.8903 15.4814 15.7482 15.4814V12.4814C18.2335 12.4814 20.2482 10.4666 20.2482 7.98135Z" fill="#F6F6F6"/>
</g>
<defs>
<clipPath id="clip0_171_381">
<rect width="31" height="31" fill="white"/>
</clipPath>
</defs>
</svg>
