<svg width="31" height="31" viewBox="0 0 31 31" fill="none" xmlns="http://www.w3.org/2000/svg">
<g clip-path="url(#clip0_343_996)">
<path d="M4 24.4689V9.4689H7V24.4689C7 26.4019 8.567 27.9689 10.5 27.9689H20.5C22.433 27.9689 24 26.4019 24 24.4689V9.4689H27V24.4689C27 28.0588 24.0899 30.9689 20.5 30.9689H10.5C6.91015 30.9689 4 28.0588 4 24.4689Z" fill="#F6F6F6"/>
<path d="M10 10.7189L13 10.7189L13 25.7189L10 25.7189L10 10.7189Z" fill="#F6F6F6"/>
<path d="M18 10.7189L21 10.7189L21 25.7189L18 25.7189L18 10.7189Z" fill="#F6F6F6"/>
<path d="M30.5 4.64136V7.64136H0.5V4.64136H30.5Z" fill="#F6F6F6"/>
<path d="M23 0.0462341V3.04623H8V0.0462341H23Z" fill="#F6F6F6"/>
</g>
<defs>
<clipPath id="clip0_343_996">
<rect width="31" height="31" fill="white"/>
</clipPath>
</defs>
</svg>
