<svg width="31" height="31" viewBox="0 0 31 31" fill="none" xmlns="http://www.w3.org/2000/svg">
<g clip-path="url(#clip0_171_350)">
<path d="M26.1528 21.4678V14.8892C26.1528 14.4058 26.0693 13.9883 25.9023 13.6367C25.7354 13.2852 25.4805 13.0127 25.1377 12.8193C24.7949 12.626 24.3599 12.5293 23.8325 12.5293C23.3667 12.5293 22.958 12.6084 22.6064 12.7666C22.2637 12.9248 22 13.1489 21.8154 13.439C21.6309 13.7202 21.5386 14.0454 21.5386 14.4146H18.0449C18.0449 13.8257 18.1855 13.2676 18.4668 12.7402C18.748 12.2041 19.1479 11.7295 19.6665 11.3164C20.1938 10.8945 20.8223 10.5649 21.5518 10.3276C22.29 10.0903 23.1162 9.97168 24.0303 9.97168C25.1113 9.97168 26.0737 10.1562 26.9175 10.5254C27.77 10.8857 28.438 11.4307 28.9214 12.1602C29.4136 12.8896 29.6597 13.8081 29.6597 14.9155V21.1382C29.6597 21.8501 29.7036 22.4609 29.7915 22.9707C29.8882 23.4717 30.0288 23.9067 30.2134 24.2759V24.5H26.667C26.5 24.1396 26.3726 23.6826 26.2847 23.1289C26.1968 22.5664 26.1528 22.0127 26.1528 21.4678ZM26.6406 15.812L26.667 17.8818H24.4653C23.9204 17.8818 23.4414 17.939 23.0283 18.0532C22.6152 18.1587 22.2769 18.3169 22.0132 18.5278C21.7495 18.73 21.5518 18.9761 21.4199 19.2661C21.2881 19.5474 21.2222 19.8682 21.2222 20.2285C21.2222 20.5801 21.3013 20.8965 21.4595 21.1777C21.6265 21.459 21.8638 21.6831 22.1714 21.8501C22.4878 22.0083 22.8569 22.0874 23.2788 22.0874C23.894 22.0874 24.4302 21.9644 24.8872 21.7183C25.3442 21.4634 25.7002 21.1558 25.9551 20.7954C26.21 20.4351 26.3462 20.0923 26.3638 19.7671L27.3657 21.27C27.2427 21.6304 27.0581 22.0127 26.812 22.417C26.5659 22.8213 26.2495 23.1992 25.8628 23.5508C25.4761 23.9023 25.0103 24.1924 24.4653 24.4209C23.9204 24.6494 23.2876 24.7637 22.5669 24.7637C21.644 24.7637 20.8179 24.5791 20.0884 24.21C19.3589 23.8408 18.7832 23.3354 18.3613 22.6938C17.9395 22.0522 17.7285 21.3228 17.7285 20.5054C17.7285 19.7495 17.8691 19.0815 18.1504 18.5015C18.4316 17.9214 18.8491 17.4336 19.4028 17.0381C19.9565 16.6338 20.6421 16.3306 21.4595 16.1284C22.2856 15.9175 23.2305 15.812 24.2939 15.812H26.6406Z" fill="#161616"/>
<path d="M9.2373 8.21826L3.76611 24.5H-0.0703125L7.10156 5.30469H9.55371L9.2373 8.21826ZM13.812 24.5L8.31445 8.21826L7.98486 5.30469H10.4502L17.6616 24.5H13.812ZM13.5615 17.3677V20.2285H3.26514V17.3677H13.5615Z" fill="#161616"/>
</g>
<defs>
<clipPath id="clip0_171_350">
<rect width="31" height="31" fill="white"/>
</clipPath>
</defs>
</svg>
