<svg width="31" height="31" viewBox="0 0 31 31" fill="none" xmlns="http://www.w3.org/2000/svg">
<g clip-path="url(#clip0_175_19)">
<path d="M16.1514 28.2652L15.5049 28.5738L14.8584 28.2652L15.5049 26.9117L16.1514 28.2652ZM27.6865 11.4098C27.6865 10.1823 27.3084 9.04721 26.6621 8.10995C25.6097 6.58409 23.8538 5.58862 21.8662 5.58847C19.7029 5.58847 17.8125 6.76785 16.8076 8.52597L16.376 9.28183H14.624L14.1924 8.52597C13.1875 6.76799 11.2979 5.58863 9.13477 5.58847C7.14698 5.58847 5.39035 6.58397 4.33789 8.10995C3.69163 9.0472 3.31348 10.1823 3.31348 11.4098C3.3137 15.1488 6.22237 18.6321 9.59961 21.3512C11.2377 22.67 12.8842 23.7273 14.125 24.4557C14.6828 24.7831 15.1563 25.0404 15.5049 25.2252C15.8531 25.0408 16.3263 24.7837 16.8838 24.4566C18.1235 23.7293 19.7686 22.674 21.4053 21.356C24.779 18.6393 27.6863 15.1558 27.6865 11.4098ZM30.6865 11.4098C30.6863 16.6338 26.7538 20.9014 23.2871 23.693C21.5036 25.1291 19.7279 26.2669 18.4023 27.0445C17.7381 27.4342 17.1825 27.7362 16.79 27.942C16.5937 28.0449 16.4376 28.1241 16.3291 28.1783C16.2748 28.2054 16.232 28.2262 16.2021 28.2408C16.1873 28.248 16.1755 28.2533 16.167 28.2574L16.1533 28.2643L16.1523 28.2652L15.5049 26.9117L14.8574 28.2643H14.8564C14.8556 28.2639 14.8547 28.2628 14.8535 28.2623C14.8509 28.261 14.847 28.2595 14.8428 28.2574C14.8343 28.2533 14.8225 28.2471 14.8076 28.2398C14.7778 28.2253 14.7349 28.2044 14.6807 28.1773C14.5721 28.1231 14.416 28.044 14.2197 27.941C13.8271 27.735 13.2712 27.4328 12.6064 27.0426C11.2801 26.264 9.50348 25.125 7.71875 23.6881C4.25047 20.8958 0.313691 16.6283 0.313477 11.4098C0.313477 9.55443 0.88831 7.82797 1.86914 6.40585C3.45765 4.10294 6.11936 2.58847 9.13477 2.58847C11.6379 2.58859 13.8958 3.6322 15.5 5.30429C17.1043 3.63207 19.3629 2.58847 21.8662 2.58847C24.8814 2.58862 27.5424 4.10308 29.1309 6.40585C30.1117 7.82797 30.6865 9.55443 30.6865 11.4098Z" fill="#8300C9"/>
</g>
<defs>
<clipPath id="clip0_175_19">
<rect width="31" height="31" fill="white"/>
</clipPath>
</defs>
</svg>
