<svg width="31" height="31" viewBox="0 0 31 31" fill="none" xmlns="http://www.w3.org/2000/svg">
<g clip-path="url(#clip0_175_19)">
<path d="M16.3984 29.5698L15.3408 30.6137L14.2871 29.5659L15.3438 28.5024L16.3984 29.5698ZM27.5254 9.00043C27.5254 7.77295 27.1473 6.63787 26.501 5.70062C25.4486 4.17476 23.6927 3.17929 21.7051 3.17914C19.5417 3.17914 17.6514 4.35852 16.6465 6.11664L16.2148 6.8725H14.4629L14.0312 6.11664C13.0264 4.35865 11.1368 3.17929 8.97363 3.17914C6.98584 3.17914 5.22922 4.17464 4.17676 5.70062C3.53351 6.6335 3.15585 7.76197 3.15234 8.98285C3.17138 10.0409 3.83506 11.7015 5.11133 13.7914C6.34652 15.8141 8.00495 18.0035 9.68945 20.0414C11.369 22.0733 13.0491 23.9252 14.3115 25.2709C14.7007 25.6858 15.0506 26.0512 15.3467 26.3588C15.645 26.0505 15.9982 25.6843 16.3906 25.268C17.6591 23.9225 19.3468 22.0708 21.0303 20.0395C22.7189 18.002 24.3777 15.8148 25.6064 13.7944C26.8798 11.7006 27.5252 10.0464 27.5254 9.00043ZM30.5254 9.00043C30.5252 10.9488 29.4606 13.2291 28.1689 15.353C26.8325 17.5504 25.0714 19.8642 23.3398 21.9536C21.6031 24.0491 19.87 25.9512 18.5732 27.3266C17.9244 28.0148 17.383 28.5731 17.0029 28.9604C16.8128 29.1541 16.6625 29.3055 16.5596 29.4086L16.4102 29.558C16.4066 29.5616 16.4033 29.5639 16.4014 29.5659C16.4004 29.5668 16.4 29.5682 16.3994 29.5688H16.3984L15.3438 28.5024L14.2861 29.5659V29.5649C14.2856 29.5643 14.2842 29.5639 14.2832 29.5629C14.2813 29.561 14.279 29.5577 14.2754 29.5541C14.2683 29.547 14.2575 29.5372 14.2441 29.5239C14.2171 29.4968 14.1771 29.4573 14.126 29.4057C14.0237 29.3026 13.8754 29.151 13.6865 28.9575C13.3086 28.5702 12.7697 28.0119 12.124 27.3237C10.8339 25.9485 9.10861 24.0475 7.37695 21.9526C5.65028 19.8636 3.89153 17.5513 2.55078 15.3559C1.25383 13.2322 0.182741 10.9603 0.152344 9.02386V9.00043C0.152344 7.1451 0.727177 5.41864 1.70801 3.99652C3.29651 1.69361 5.95823 0.179138 8.97363 0.179138C11.4768 0.179257 13.7347 1.22286 15.3389 2.89496C16.9431 1.22274 19.2018 0.179138 21.7051 0.179138C24.7203 0.179291 27.3813 1.69375 28.9697 3.99652C29.9506 5.41864 30.5254 7.1451 30.5254 9.00043Z" fill="#8300C9"/>
</g>
<defs>
<clipPath id="clip0_175_19">
<rect width="31" height="31" fill="white"/>
</clipPath>
</defs>
</svg>
