<svg width="31" height="31" viewBox="0 0 31 31" fill="none" xmlns="http://www.w3.org/2000/svg">
<g clip-path="url(#clip0_171_394)">
<path d="M25.5 27.5V30.5H5.5V27.5H25.5ZM27.5 25.5V5.5C27.5 4.39543 26.6046 3.5 25.5 3.5H5.5C4.39543 3.5 3.5 4.39543 3.5 5.5V25.5C3.5 26.6046 4.39543 27.5 5.5 27.5V30.5C2.82472 30.5 0.640529 28.3989 0.506836 25.7568L0.5 25.5V5.5C0.5 2.73858 2.73858 0.5 5.5 0.5H25.5L25.7568 0.506836C28.3989 0.640529 30.5 2.82472 30.5 5.5V25.5L30.4932 25.7568C30.3638 28.3138 28.3138 30.3638 25.7568 30.4932L25.5 30.5V27.5C26.6046 27.5 27.5 26.6046 27.5 25.5Z" fill="#8300C9"/>
<path d="M30.5 14V17H0.5V14H30.5Z" fill="#8300C9"/>
<path d="M14 0.5L17 0.5L17 30.5L14 30.5L14 0.5Z" fill="#8300C9"/>
</g>
<defs>
<clipPath id="clip0_171_394">
<rect width="31" height="31" fill="white"/>
</clipPath>
</defs>
</svg>
