<svg width="31" height="31" viewBox="0 0 31 31" fill="none" xmlns="http://www.w3.org/2000/svg">
<path d="M18.1522 10.4814C18.1522 6.61539 15.0182 3.48138 11.1522 3.48138C7.28623 3.48138 4.15222 6.61539 4.15222 10.4814C4.15222 14.3474 7.28623 17.4814 11.1522 17.4814V20.4814C5.62937 20.4814 1.15222 16.0042 1.15222 10.4814C1.15222 4.95854 5.62937 0.481384 11.1522 0.481384C16.6751 0.481384 21.1522 4.95854 21.1522 10.4814C21.1522 16.0042 16.6751 20.4814 11.1522 20.4814V17.4814C15.0182 17.4814 18.1522 14.3474 18.1522 10.4814Z" fill="#161616"/>
<path d="M30.9264 28.8052L28.8051 30.9265L15.3687 17.4901L17.49 15.3688L30.9264 28.8052Z" fill="#161616"/>
</svg>
